<svg xmlns="http://www.w3.org/2000/svg" width="860" height="515" font-family="-apple-system,BlinkMacSystemFont,'Segoe UI',Roboto,sans-serif">

  <!-- Background -->
  <rect width="860" height="515" fill="#f5f7fa"/>

  <!-- Title -->
  <text x="430" y="34" text-anchor="middle" font-size="15" font-weight="700" fill="#1a1a2e">DEP Data Engineering Open Track — Tech Stack</text>

  <!-- ─────────────────────────────────────────────
       PHASE 1  x=10  y=50  w=225  h=200
  ──────────────────────────────────────────────── -->
  <rect x="10" y="50" width="225" height="200" rx="10" fill="white" stroke="#b0bec5" stroke-width="1.5" stroke-dasharray="6,3"/>
  <!-- Badge -->
  <rect x="20" y="61" width="205" height="22" rx="11" fill="#1a3a6b"/>
  <text x="122" y="76" text-anchor="middle" font-size="10" font-weight="700" fill="white">Phase 1 · Foundations (Wks 1–4)</text>
  <!-- Python -->
  <rect x="22" y="95" width="28" height="28" rx="6" fill="#e3f0ff"/>
  <text x="36" y="114" text-anchor="middle" font-size="11" font-weight="700" fill="#1565c0">Py</text>
  <text x="56" y="107" font-size="11" font-weight="600" fill="#1a1a2e">Python 3</text>
  <text x="56" y="119" font-size="9" fill="#607d8b">Variables, loops, functions</text>
  <!-- Git -->
  <rect x="22" y="133" width="28" height="28" rx="6" fill="#fce4ec"/>
  <text x="36" y="152" text-anchor="middle" font-size="11" font-weight="700" fill="#c62828">Git</text>
  <text x="56" y="145" font-size="11" font-weight="600" fill="#1a1a2e">Git + GitHub</text>
  <text x="56" y="157" font-size="9" fill="#607d8b">Version control, public repo</text>
  <!-- VS Code -->
  <rect x="22" y="171" width="28" height="28" rx="6" fill="#e3f0ff"/>
  <text x="36" y="190" text-anchor="middle" font-size="9" font-weight="700" fill="#007acc">VSC</text>
  <text x="56" y="183" font-size="11" font-weight="600" fill="#1a1a2e">VS Code</text>
  <text x="56" y="195" font-size="9" fill="#607d8b">Development environment</text>
  <!-- Output -->
  <rect x="18" y="212" width="207" height="24" rx="4" fill="#e8efff"/>
  <rect x="18" y="212" width="3" height="24" rx="2" fill="#1a3a6b"/>
  <text x="27" y="228" font-size="9" font-weight="600" fill="#1a3a6b">Output: Problem statement + public repo</text>

  <!-- ─────────────────────────────────────────────
       ARROW 1
  ──────────────────────────────────────────────── -->
  <line x1="236" y1="150" x2="263" y2="150" stroke="#1a3a6b" stroke-width="2"/>
  <polygon points="256,146 265,150 256,154" fill="#1a3a6b"/>

  <!-- ─────────────────────────────────────────────
       PHASE 2  x=275  y=50  w=215  h=152
  ──────────────────────────────────────────────── -->
  <rect x="275" y="50" width="215" height="152" rx="10" fill="white" stroke="#b0bec5" stroke-width="1.5" stroke-dasharray="6,3"/>
  <rect x="285" y="61" width="195" height="22" rx="11" fill="#1a3a6b"/>
  <text x="382" y="76" text-anchor="middle" font-size="10" font-weight="700" fill="white">Phase 2 · Data Collection (Wks 5–6)</text>
  <!-- requests -->
  <rect x="287" y="95" width="28" height="28" rx="6" fill="#e0f7f4"/>
  <text x="301" y="114" text-anchor="middle" font-size="8.5" font-weight="700" fill="#00695c">req</text>
  <text x="321" y="107" font-size="11" font-weight="600" fill="#1a1a2e">requests</text>
  <text x="321" y="119" font-size="9" fill="#607d8b">REST APIs, pagination, auth</text>
  <!-- BeautifulSoup -->
  <rect x="287" y="133" width="28" height="28" rx="6" fill="#fff3e0"/>
  <text x="301" y="152" text-anchor="middle" font-size="8.5" font-weight="700" fill="#e65100">BS4</text>
  <text x="321" y="145" font-size="11" font-weight="600" fill="#1a1a2e">BeautifulSoup</text>
  <text x="321" y="157" font-size="9" fill="#607d8b">Web scraping (optional)</text>
  <!-- Output -->
  <rect x="283" y="170" width="197" height="24" rx="4" fill="#e8efff"/>
  <rect x="283" y="170" width="3" height="24" rx="2" fill="#1a3a6b"/>
  <text x="292" y="186" font-size="9" font-weight="600" fill="#1a3a6b">Output: Raw dataset in data/raw/</text>

  <!-- ─────────────────────────────────────────────
       PHASE 3  x=275  y=215  w=215  h=152
  ──────────────────────────────────────────────── -->
  <rect x="275" y="215" width="215" height="152" rx="10" fill="white" stroke="#b0bec5" stroke-width="1.5" stroke-dasharray="6,3"/>
  <rect x="285" y="226" width="195" height="22" rx="11" fill="#1a3a6b"/>
  <text x="382" y="241" text-anchor="middle" font-size="10" font-weight="700" fill="white">Phase 3 · Data Processing (Wks 7–12)</text>
  <!-- SQL -->
  <rect x="287" y="260" width="28" height="28" rx="6" fill="#e0f7f4"/>
  <text x="301" y="279" text-anchor="middle" font-size="9" font-weight="700" fill="#00695c">SQL</text>
  <text x="321" y="272" font-size="11" font-weight="600" fill="#1a1a2e">SQL (SQLite)</text>
  <text x="321" y="284" font-size="9" fill="#607d8b">Schema design, business queries</text>
  <!-- pandas + Jupyter -->
  <rect x="287" y="298" width="28" height="28" rx="6" fill="#f3e8ff"/>
  <text x="301" y="317" text-anchor="middle" font-size="8.5" font-weight="700" fill="#6a1b9a">pd</text>
  <text x="321" y="310" font-size="11" font-weight="600" fill="#1a1a2e">pandas + Jupyter</text>
  <text x="321" y="322" font-size="9" fill="#607d8b">Cleaning, transforms, profiling</text>
  <!-- Output -->
  <rect x="283" y="335" width="197" height="24" rx="4" fill="#e8efff"/>
  <rect x="283" y="335" width="3" height="24" rx="2" fill="#1a3a6b"/>
  <text x="292" y="351" font-size="9" font-weight="600" fill="#1a3a6b">Output: Clean dataset in data/processed/</text>

  <!-- ─────────────────────────────────────────────
       ARROW 2
  ──────────────────────────────────────────────── -->
  <line x1="491" y1="210" x2="518" y2="210" stroke="#1a3a6b" stroke-width="2"/>
  <polygon points="511,206 520,210 511,214" fill="#1a3a6b"/>

  <!-- ─────────────────────────────────────────────
       PHASE 4  x=530  y=50  w=320  h=152
  ──────────────────────────────────────────────── -->
  <rect x="530" y="50" width="320" height="152" rx="10" fill="white" stroke="#b0bec5" stroke-width="1.5" stroke-dasharray="6,3"/>
  <rect x="540" y="61" width="300" height="22" rx="11" fill="#1a3a6b"/>
  <text x="690" y="76" text-anchor="middle" font-size="10" font-weight="700" fill="white">Phase 4 · Analysis &amp; Insights (Wks 13–16)</text>
  <!-- Jupyter Notebooks -->
  <rect x="542" y="95" width="28" height="28" rx="6" fill="#fff8e1"/>
  <text x="556" y="114" text-anchor="middle" font-size="8.5" font-weight="700" fill="#f57f17">Jup</text>
  <text x="576" y="107" font-size="11" font-weight="600" fill="#1a1a2e">Jupyter Notebooks</text>
  <text x="576" y="119" font-size="9" fill="#607d8b">EDA, 3–5 charts, interpretations</text>
  <!-- Plotly / Matplotlib -->
  <rect x="542" y="133" width="28" height="28" rx="6" fill="#e8eaf6"/>
  <text x="556" y="152" text-anchor="middle" font-size="8.5" font-weight="700" fill="#283593">Plt</text>
  <text x="576" y="145" font-size="11" font-weight="600" fill="#1a1a2e">Plotly / Matplotlib</text>
  <text x="576" y="157" font-size="9" fill="#607d8b">Bar, line, scatter, choropleth</text>
  <!-- Output -->
  <rect x="538" y="170" width="302" height="24" rx="4" fill="#e8efff"/>
  <rect x="538" y="170" width="3" height="24" rx="2" fill="#1a3a6b"/>
  <text x="547" y="186" font-size="9" font-weight="600" fill="#1a3a6b">Output: Insights notebook</text>

  <!-- ─────────────────────────────────────────────
       PHASE 5  x=530  y=215  w=320  h=120
  ──────────────────────────────────────────────── -->
  <rect x="530" y="215" width="320" height="120" rx="10" fill="white" stroke="#b0bec5" stroke-width="1.5" stroke-dasharray="6,3"/>
  <rect x="540" y="226" width="300" height="22" rx="11" fill="#1a3a6b"/>
  <text x="690" y="241" text-anchor="middle" font-size="10" font-weight="700" fill="white">Phase 5 · Predictive / Alt Track (Wks 17–20)</text>
  <!-- scikit-learn Path A -->
  <rect x="542" y="260" width="28" height="28" rx="6" fill="#e8f5e9"/>
  <text x="556" y="279" text-anchor="middle" font-size="8" font-weight="700" fill="#1b5e20">skl</text>
  <text x="576" y="272" font-size="11" font-weight="600" fill="#1a1a2e">scikit-learn (Path A)</text>
  <text x="576" y="284" font-size="9" fill="#607d8b">Regression, classification (optional)</text>
  <!-- Output -->
  <rect x="538" y="303" width="302" height="24" rx="4" fill="#e8efff"/>
  <rect x="538" y="303" width="3" height="24" rx="2" fill="#1a3a6b"/>
  <text x="547" y="319" font-size="9" font-weight="600" fill="#1a3a6b">Output: Predictive model OR advanced analysis</text>

  <!-- ─────────────────────────────────────────────
       PHASE 6  x=530  y=348  w=320  h=148
  ──────────────────────────────────────────────── -->
  <rect x="530" y="348" width="320" height="148" rx="10" fill="white" stroke="#b0bec5" stroke-width="1.5" stroke-dasharray="6,3"/>
  <rect x="540" y="359" width="300" height="22" rx="11" fill="#1a3a6b"/>
  <text x="690" y="374" text-anchor="middle" font-size="10" font-weight="700" fill="white">Phase 6 · Deployment (Wks 21–24)</text>
  <!-- GitHub Pages -->
  <rect x="542" y="393" width="28" height="28" rx="6" fill="#e8f5e9"/>
  <text x="556" y="412" text-anchor="middle" font-size="7.5" font-weight="700" fill="#1b5e20">GHP</text>
  <text x="576" y="405" font-size="11" font-weight="600" fill="#1a1a2e">GitHub Pages</text>
  <text x="576" y="417" font-size="9" fill="#607d8b">Live dashboard, public URL</text>
  <!-- GitHub Actions -->
  <rect x="542" y="431" width="28" height="28" rx="6" fill="#e3f2fd"/>
  <text x="556" y="450" text-anchor="middle" font-size="7.5" font-weight="700" fill="#0277bd">GHA</text>
  <text x="576" y="443" font-size="11" font-weight="600" fill="#1a1a2e">GitHub Actions</text>
  <text x="576" y="455" font-size="9" fill="#607d8b">CI/CD auto-deploy on push</text>
  <!-- Output -->
  <rect x="538" y="467" width="302" height="24" rx="4" fill="#e8efff"/>
  <rect x="538" y="467" width="3" height="24" rx="2" fill="#1a3a6b"/>
  <text x="547" y="483" font-size="9" font-weight="600" fill="#1a3a6b">Output: Live end-to-end pipeline</text>

  <!-- Footer -->
  <text x="430" y="508" text-anchor="middle" font-size="9" fill="#90a4ae">Data Engineering Pilipinas · Free &amp; Open</text>

</svg>
